<svg width="64" height="64" viewBox="0 0 64 64" fill="none" xmlns="http://www.w3.org/2000/svg">
<path d="M56 13.3333C53.04 12.4 49.7867 12 46.6667 12C41.4667 12 35.8667 13.0667 32 16C28.1334 13.0667 22.5334 12 17.3334 12C12.1334 12 6.53335 13.0667 2.66669 16V55.0667C2.66669 55.7333 3.33335 56.4 4.00002 56.4C4.26669 56.4 4.40002 56.2667 4.66669 56.2667C8.26669 54.5333 13.4667 53.3333 17.3334 53.3333C22.5334 53.3333 28.1334 54.4 32 57.3333C35.6 55.0667 42.1334 53.3333 46.6667 53.3333C51.0667 53.3333 55.6 54.1333 59.3334 56.1333C59.6 56.2667 59.7333 56.2667 60 56.2667C60.6667 56.2667 61.3334 55.6 61.3334 54.9333V16C59.7333 14.8 58 14 56 13.3333ZM56 49.3333C53.0667 48.4 49.8667 48 46.6667 48C42.1334 48 35.6 49.7333 32 52V21.3333C35.6 19.0667 42.1334 17.3333 46.6667 17.3333C49.8667 17.3333 53.0667 17.7333 56 18.6667V49.3333Z" fill="#1F7E84"/>
<path d="M46.6667 28C49.0134 28 51.28 28.24 53.3334 28.6933V24.64C51.2267 24.24 48.96 24 46.6667 24C42.1334 24 38.0267 24.7733 34.6667 26.2133V30.64C37.68 28.9333 41.8667 28 46.6667 28Z" fill="#1F7E84"/>
<path d="M34.6667 33.3067V37.7334C37.68 36.0267 41.8667 35.0934 46.6667 35.0934C49.0134 35.0934 51.28 35.3334 53.3334 35.7867V31.7334C51.2267 31.3334 48.96 31.0934 46.6667 31.0934C42.1334 31.0934 38.0267 31.8934 34.6667 33.3067Z" fill="#1F7E84"/>
<path d="M46.6667 38.2134C42.1334 38.2134 38.0267 38.9867 34.6667 40.4267V44.8534C37.68 43.1467 41.8667 42.2134 46.6667 42.2134C49.0134 42.2134 51.28 42.4534 53.3334 42.9067V38.8534C51.2267 38.4267 48.96 38.2134 46.6667 38.2134Z" fill="#1F7E84"/>
</svg>
