<svg width="64" height="64" viewBox="0 0 64 64" fill="none" xmlns="http://www.w3.org/2000/svg">
<path d="M27.3333 34.6666C27.3333 36.5066 25.84 38 24 38C22.16 38 20.6666 36.5066 20.6666 34.6666C20.6666 32.8266 22.16 31.3333 24 31.3333C25.84 31.3333 27.3333 32.8266 27.3333 34.6666ZM40 31.3333C38.16 31.3333 36.6666 32.8266 36.6666 34.6666C36.6666 36.5066 38.16 38 40 38C41.84 38 43.3333 36.5066 43.3333 34.6666C43.3333 32.8266 41.84 31.3333 40 31.3333ZM58.6666 32C58.6666 46.72 46.72 58.6666 32 58.6666C17.28 58.6666 5.33331 46.72 5.33331 32C5.33331 17.28 17.28 5.33331 32 5.33331C46.72 5.33331 58.6666 17.28 58.6666 32ZM28.4266 10.9866C32.16 17.1733 38.9333 21.3333 46.6666 21.3333C47.8933 21.3333 49.0933 21.2 50.24 21.0133C46.5066 14.8266 39.7333 10.6666 32 10.6666C30.7733 10.6666 29.5733 10.8 28.4266 10.9866ZM11.7866 25.2533C16.3466 22.6666 19.8666 18.4533 21.5466 13.4133C16.9866 16 13.4666 20.2133 11.7866 25.2533ZM53.3333 32C53.3333 29.92 53.0133 27.92 52.4533 26.0266C50.5866 26.4266 48.6666 26.6666 46.6666 26.6666C38.32 26.6666 30.88 22.8266 25.9733 16.8266C23.1733 23.6533 17.6 29.0133 10.6666 31.6266C10.6933 31.7333 10.6666 31.8666 10.6666 32C10.6666 43.76 20.24 53.3333 32 53.3333C43.76 53.3333 53.3333 43.76 53.3333 32Z" fill="#2FDDE7"/>
</svg>
