<svg width="64" height="64" viewBox="0 0 64 64" fill="none" xmlns="http://www.w3.org/2000/svg">
<path d="M31.9733 5.33337C17.2533 5.33337 5.33331 17.28 5.33331 32C5.33331 46.72 17.2533 58.6667 31.9733 58.6667C46.72 58.6667 58.6666 46.72 58.6666 32C58.6666 17.28 46.72 5.33337 31.9733 5.33337ZM50.4533 21.3334H42.5866C41.7333 18 40.5066 14.8 38.9066 11.84C43.8133 13.52 47.8933 16.9334 50.4533 21.3334ZM32 10.7734C34.2133 13.9734 35.9466 17.52 37.0933 21.3334H26.9066C28.0533 17.52 29.7866 13.9734 32 10.7734ZM11.36 37.3334C10.9333 35.6267 10.6666 33.84 10.6666 32C10.6666 30.16 10.9333 28.3734 11.36 26.6667H20.3733C20.16 28.4267 20 30.1867 20 32C20 33.8134 20.16 35.5734 20.3733 37.3334H11.36ZM13.5466 42.6667H21.4133C22.2666 46 23.4933 49.2 25.0933 52.16C20.1866 50.48 16.1066 47.0934 13.5466 42.6667ZM21.4133 21.3334H13.5466C16.1066 16.9067 20.1866 13.52 25.0933 11.84C23.4933 14.8 22.2666 18 21.4133 21.3334ZM32 53.2267C29.7866 50.0267 28.0533 46.48 26.9066 42.6667H37.0933C35.9466 46.48 34.2133 50.0267 32 53.2267ZM38.24 37.3334H25.76C25.52 35.5734 25.3333 33.8134 25.3333 32C25.3333 30.1867 25.52 28.4 25.76 26.6667H38.24C38.48 28.4 38.6666 30.1867 38.6666 32C38.6666 33.8134 38.48 35.5734 38.24 37.3334ZM38.9066 52.16C40.5066 49.2 41.7333 46 42.5866 42.6667H50.4533C47.8933 47.0667 43.8133 50.48 38.9066 52.16ZM43.6266 37.3334C43.84 35.5734 44 33.8134 44 32C44 30.1867 43.84 28.4267 43.6266 26.6667H52.64C53.0666 28.3734 53.3333 30.16 53.3333 32C53.3333 33.84 53.0666 35.6267 52.64 37.3334H43.6266Z" fill="#123233"/>
</svg>
