<svg width="166" height="39" viewBox="0 0 166 39" fill="none" xmlns="http://www.w3.org/2000/svg">
<path d="M19.0193 22.008H7.79535L5.54135 29.046C5.26535 29.1687 4.97401 29.2607 4.66735 29.322C4.36068 29.3833 3.99268 29.414 3.56335 29.414C2.79668 29.414 2.16801 29.2453 1.67735 28.908C1.18668 28.5707 0.941345 28.0647 0.941345 27.39C0.941345 27.0527 0.987345 26.7307 1.07935 26.424C1.17135 26.0867 1.29401 25.7187 1.44735 25.32C1.84601 24.032 2.39801 22.376 3.10335 20.352C3.83935 18.2973 4.60601 16.1353 5.40335 13.866C6.23135 11.5967 7.05935 9.37335 7.88735 7.19601C8.71535 4.98801 9.43601 3.10201 10.0493 1.53801C10.356 1.35401 10.8313 1.18534 11.4753 1.03201C12.1193 0.848012 12.7787 0.756012 13.4533 0.756012C14.3427 0.756012 15.14 0.878679 15.8453 1.12401C16.5507 1.36934 17.026 1.79868 17.2713 2.41201C17.946 4.16001 18.682 6.15335 19.4793 8.39201C20.2767 10.6 21.074 12.8847 21.8713 15.246C22.6687 17.6073 23.4353 19.9227 24.1713 22.192C24.9073 24.4613 25.5667 26.516 26.1493 28.356C25.8733 28.6627 25.5053 28.908 25.0453 29.092C24.616 29.3067 24.0947 29.414 23.4813 29.414C22.6533 29.414 22.0553 29.2607 21.6873 28.954C21.3193 28.6167 21.0127 28.0647 20.7673 27.298L19.0193 22.008ZM13.4073 5.03401C13.1007 5.86201 12.7633 6.79735 12.3953 7.84001C12.0273 8.88268 11.644 9.98668 11.2453 11.152C10.8467 12.2867 10.448 13.452 10.0493 14.648C9.65068 15.8133 9.26735 16.948 8.89935 18.052H17.9613C17.5627 16.8253 17.1487 15.5987 16.7193 14.372C16.3207 13.1147 15.922 11.9187 15.5233 10.784C15.1553 9.64935 14.8027 8.59135 14.4653 7.61001C14.128 6.59801 13.852 5.73935 13.6373 5.03401H13.4073Z" fill="#FAFDFF"/>
<path d="M30.2297 7.51801C30.4444 7.45668 30.751 7.39535 31.1497 7.33401C31.5484 7.24201 31.9777 7.19601 32.4377 7.19601C33.327 7.19601 33.971 7.36468 34.3697 7.70201C34.799 8.03935 35.0137 8.62201 35.0137 9.45001V20.812C35.0137 22.5907 35.4737 23.8633 36.3937 24.63C37.3444 25.366 38.6477 25.734 40.3037 25.734C41.377 25.734 42.2817 25.6267 43.0177 25.412C43.7537 25.1973 44.3364 24.9673 44.7657 24.722V7.51801C45.011 7.45668 45.3177 7.39535 45.6857 7.33401C46.0844 7.24201 46.5137 7.19601 46.9737 7.19601C47.863 7.19601 48.5224 7.36468 48.9517 7.70201C49.381 8.03935 49.5957 8.62201 49.5957 9.45001V24.952C49.5957 25.6267 49.4884 26.1787 49.2737 26.608C49.059 27.0373 48.6297 27.4513 47.9857 27.85C47.1884 28.31 46.1304 28.724 44.8117 29.092C43.5237 29.46 42.0057 29.644 40.2577 29.644C37.099 29.644 34.6304 28.954 32.8517 27.574C31.1037 26.1633 30.2297 23.94 30.2297 20.904V7.51801Z" fill="#FAFDFF"/>
<path d="M70.001 26.976C69.4183 27.344 68.6977 27.6507 67.839 27.896C67.011 28.1413 66.0143 28.264 64.849 28.264C63.4997 28.264 62.2117 28.08 60.985 27.712C59.789 27.3133 58.731 26.7 57.811 25.872C56.891 25.0133 56.155 23.9093 55.603 22.56C55.0817 21.2107 54.821 19.5547 54.821 17.592C54.821 15.8133 55.0817 14.2647 55.603 12.946C56.155 11.5967 56.9063 10.4773 57.857 9.58801C58.8383 8.66801 59.9883 7.97801 61.307 7.51801C62.6563 7.05801 64.1437 6.82801 65.769 6.82801C67.2717 6.82801 68.6517 7.02735 69.909 7.42601C71.197 7.79401 72.2397 8.23868 73.037 8.76001C73.5583 9.09735 73.957 9.48068 74.233 9.91001C74.5397 10.3393 74.693 10.8607 74.693 11.474V29.598C74.693 31.1313 74.417 32.45 73.865 33.554C73.3437 34.658 72.6077 35.5473 71.657 36.222C70.737 36.9273 69.633 37.4333 68.345 37.74C67.057 38.0773 65.677 38.246 64.205 38.246C62.641 38.246 61.2917 38.0927 60.157 37.786C59.0223 37.4793 58.1943 37.1727 57.673 36.866C56.7223 36.2833 56.247 35.5167 56.247 34.566C56.247 34.0447 56.3543 33.6 56.569 33.232C56.7837 32.8947 57.0597 32.6187 57.397 32.404C58.1023 32.8947 59.0377 33.3393 60.203 33.738C61.3683 34.1367 62.6103 34.336 63.929 34.336C65.861 34.336 67.3483 33.9373 68.391 33.14C69.4643 32.3733 70.001 31.116 70.001 29.368V26.976ZM65.539 24.492C66.5817 24.492 67.4557 24.3387 68.161 24.032C68.8663 23.7253 69.4643 23.3573 69.955 22.928V11.796C69.495 11.52 68.9277 11.2747 68.253 11.06C67.5783 10.8147 66.781 10.692 65.861 10.692C63.9903 10.692 62.4877 11.2593 61.353 12.394C60.2183 13.5287 59.651 15.246 59.651 17.546C59.651 18.8033 59.8043 19.8767 60.111 20.766C60.4177 21.6553 60.8317 22.376 61.353 22.928C61.8743 23.48 62.4877 23.8787 63.193 24.124C63.929 24.3693 64.711 24.492 65.539 24.492Z" fill="#FAFDFF"/>
<path d="M80.9914 7.51801C81.2061 7.45668 81.5127 7.39535 81.9114 7.33401C82.3101 7.24201 82.7394 7.19601 83.1994 7.19601C84.0887 7.19601 84.7327 7.36468 85.1314 7.70201C85.5607 8.03935 85.7754 8.62201 85.7754 9.45001V20.812C85.7754 22.5907 86.2354 23.8633 87.1554 24.63C88.1061 25.366 89.4094 25.734 91.0654 25.734C92.1387 25.734 93.0434 25.6267 93.7794 25.412C94.5154 25.1973 95.0981 24.9673 95.5274 24.722V7.51801C95.7727 7.45668 96.0794 7.39535 96.4474 7.33401C96.8461 7.24201 97.2754 7.19601 97.7354 7.19601C98.6247 7.19601 99.2841 7.36468 99.7134 7.70201C100.143 8.03935 100.357 8.62201 100.357 9.45001V24.952C100.357 25.6267 100.25 26.1787 100.035 26.608C99.8207 27.0373 99.3914 27.4513 98.7474 27.85C97.9501 28.31 96.8921 28.724 95.5734 29.092C94.2854 29.46 92.7674 29.644 91.0194 29.644C87.8607 29.644 85.3921 28.954 83.6134 27.574C81.8654 26.1633 80.9914 23.94 80.9914 20.904V7.51801Z" fill="#FAFDFF"/>
<path d="M122.741 23.066C122.741 25.1207 121.974 26.7307 120.441 27.896C118.907 29.0613 116.684 29.644 113.771 29.644C112.575 29.644 111.471 29.552 110.459 29.368C109.447 29.184 108.573 28.9233 107.837 28.586C107.131 28.2487 106.579 27.85 106.181 27.39C105.782 26.93 105.583 26.424 105.583 25.872C105.583 25.412 105.69 24.9827 105.905 24.584C106.15 24.1853 106.472 23.8633 106.871 23.618C107.729 24.17 108.711 24.676 109.815 25.136C110.919 25.596 112.207 25.826 113.679 25.826C115.059 25.826 116.117 25.596 116.853 25.136C117.589 24.6453 117.957 23.9553 117.957 23.066C117.957 22.2993 117.696 21.686 117.175 21.226C116.684 20.766 115.948 20.4133 114.967 20.168L111.839 19.34C109.753 18.788 108.22 18.0367 107.239 17.086C106.257 16.1353 105.767 14.832 105.767 13.176C105.767 12.2867 105.951 11.4587 106.319 10.692C106.687 9.89468 107.223 9.22001 107.929 8.66801C108.665 8.08535 109.569 7.64068 110.643 7.33401C111.716 6.99668 112.943 6.82801 114.323 6.82801C115.427 6.82801 116.423 6.92001 117.313 7.10401C118.233 7.25735 119.015 7.48735 119.659 7.79401C120.333 8.07001 120.855 8.42268 121.223 8.85201C121.591 9.28134 121.775 9.74135 121.775 10.232C121.775 10.7227 121.667 11.152 121.453 11.52C121.238 11.8573 120.962 12.1333 120.625 12.348C120.073 12.0107 119.245 11.6427 118.141 11.244C117.067 10.8453 115.902 10.646 114.645 10.646C113.357 10.646 112.345 10.876 111.609 11.336C110.873 11.7653 110.505 12.3787 110.505 13.176C110.505 13.7893 110.704 14.2953 111.103 14.694C111.532 15.0927 112.253 15.4147 113.265 15.66L115.933 16.35C118.263 16.9633 119.981 17.7913 121.085 18.834C122.189 19.8767 122.741 21.2873 122.741 23.066Z" fill="#FAFDFF"/>
<path d="M132.63 22.698C132.63 23.802 132.952 24.584 133.596 25.044C134.24 25.504 135.145 25.734 136.31 25.734C136.831 25.734 137.383 25.6573 137.966 25.504C138.549 25.3507 139.055 25.1667 139.484 24.952C139.699 25.1973 139.883 25.4733 140.036 25.78C140.22 26.0867 140.312 26.4547 140.312 26.884C140.312 27.6813 139.898 28.3407 139.07 28.862C138.273 29.3833 137.046 29.644 135.39 29.644C133.09 29.644 131.25 29.138 129.87 28.126C128.521 27.0833 127.846 25.3813 127.846 23.02V1.53801C128.061 1.47668 128.367 1.40001 128.766 1.30801C129.165 1.21601 129.594 1.17001 130.054 1.17001C130.943 1.17001 131.587 1.33868 131.986 1.67601C132.415 2.01335 132.63 2.58068 132.63 3.37801V7.93201H139.76C139.883 8.11601 139.99 8.37668 140.082 8.71401C140.205 9.05135 140.266 9.40401 140.266 9.77201C140.266 11.0907 139.699 11.75 138.564 11.75H132.63V22.698Z" fill="#FAFDFF"/>
<path d="M165.345 18.236C165.345 19.984 165.084 21.5633 164.563 22.974C164.041 24.3847 163.305 25.5807 162.355 26.562C161.435 27.5433 160.3 28.31 158.951 28.862C157.601 29.3833 156.099 29.644 154.443 29.644C152.787 29.644 151.284 29.3833 149.935 28.862C148.585 28.31 147.435 27.5433 146.485 26.562C145.565 25.5807 144.844 24.3847 144.323 22.974C143.801 21.5633 143.541 19.984 143.541 18.236C143.541 16.488 143.801 14.9087 144.323 13.498C144.844 12.0873 145.58 10.8913 146.531 9.91001C147.481 8.92868 148.631 8.17735 149.981 7.65601C151.33 7.10401 152.817 6.82801 154.443 6.82801C156.068 6.82801 157.555 7.10401 158.905 7.65601C160.254 8.17735 161.404 8.94401 162.355 9.95601C163.305 10.9373 164.041 12.1333 164.563 13.544C165.084 14.924 165.345 16.488 165.345 18.236ZM154.443 10.692C152.603 10.692 151.146 11.3513 150.073 12.67C148.999 13.9887 148.463 15.844 148.463 18.236C148.463 20.628 148.984 22.4833 150.027 23.802C151.069 25.09 152.541 25.734 154.443 25.734C156.344 25.734 157.816 25.09 158.859 23.802C159.901 22.4833 160.423 20.628 160.423 18.236C160.423 15.8747 159.886 14.0347 158.813 12.716C157.77 11.3667 156.313 10.692 154.443 10.692Z" fill="#FAFDFF"/>
</svg>
